# This file uses centimeters as units for non-parametric coordinates.

mtllib Mesh_Character_Cardbox.mtl
g default
v -0.500000 -0.500000 0.500000
v 0.500000 -0.500000 0.500000
v -0.500000 0.500000 0.500000
v 0.500000 0.500000 0.500000
v -0.500000 0.500000 -0.500000
v 0.500000 0.500000 -0.500000
v -0.500000 -0.500000 -0.500000
v 0.500000 -0.500000 -0.500000
vt 0.502481 0.500261
vt 0.747005 0.500756
vt 0.746510 0.745281
vt 0.501985 0.744785
vt 0.502976 0.255736
vt 0.991530 0.501251
vt 0.503471 0.011211
vt 0.991035 0.745776
vt 0.747501 0.256231
vt 0.257956 0.499765
vt 0.746015 0.989805
vt 0.747996 0.011706
vt 0.501490 0.989310
vt 0.257460 0.744290
vn 0.000000 0.000000 1.000000
vn 0.000000 0.000000 1.000000
vn 0.000000 0.000000 1.000000
vn 0.000000 0.000000 1.000000
vn 0.000000 1.000000 0.000000
vn 0.000000 1.000000 0.000000
vn 0.000000 1.000000 0.000000
vn 0.000000 1.000000 0.000000
vn 0.000000 0.000000 -1.000000
vn 0.000000 0.000000 -1.000000
vn 0.000000 0.000000 -1.000000
vn 0.000000 0.000000 -1.000000
vn 0.000000 -1.000000 0.000000
vn 0.000000 -1.000000 0.000000
vn 0.000000 -1.000000 0.000000
vn 0.000000 -1.000000 0.000000
vn 1.000000 0.000000 0.000000
vn 1.000000 0.000000 0.000000
vn 1.000000 0.000000 0.000000
vn 1.000000 0.000000 0.000000
vn -1.000000 0.000000 0.000000
vn -1.000000 0.000000 0.000000
vn -1.000000 0.000000 0.000000
vn -1.000000 0.000000 0.000000
s off
g pCube2
usemtl lambert3SG
f 1/4/1 2/3/2 4/11/3 3/13/4
f 3/7/5 4/12/6 6/9/7 5/5/8
f 5/5/9 6/9/10 8/2/11 7/1/12
f 7/1/13 8/2/14 2/3/15 1/4/16
f 2/3/17 8/2/18 6/6/19 4/8/20
f 7/1/21 1/4/22 3/14/23 5/10/24
