# This file uses centimeters as units for non-parametric coordinates.

mtllib Mesh_Character_Truhe.mtl
g default
v -0.500000 -0.500000 0.501958
v 0.500000 -0.500000 0.501958
v -0.500000 0.500000 0.501958
v 0.500000 0.500000 0.501958
v -0.500000 0.500000 -0.498042
v 0.500000 0.500000 -0.498042
v -0.500000 -0.500000 -0.498042
v 0.500000 -0.500000 -0.498042
v -0.065130 -0.500000 0.501958
v -0.065130 -0.500000 -0.498042
v -0.065130 0.500000 -0.498042
v -0.065130 0.500000 0.501958
v -0.500000 0.310107 0.501958
v -0.065130 0.310107 0.501958
v 0.500000 0.310107 0.501958
v 0.500000 0.310107 -0.498042
v -0.065130 0.310107 -0.498042
v -0.500000 0.310107 -0.498042
v 0.059650 -0.500000 0.501958
v 0.059650 0.310107 0.501958
v 0.059650 0.500000 0.501958
v 0.059650 0.500000 -0.498042
v 0.059650 0.310107 -0.498042
v 0.059650 -0.500000 -0.498042
v -0.500000 0.065626 0.501958
v -0.065130 0.065626 0.501958
v 0.059650 0.065626 0.501958
v 0.500000 0.065626 0.501958
v 0.500000 0.065626 -0.498042
v 0.059650 0.065626 -0.498042
v -0.065130 0.065626 -0.498042
v -0.500000 0.065626 -0.498042
v -0.065130 0.187867 0.501958
v -0.500000 0.187867 0.501958
v -0.500000 0.187867 -0.498042
v -0.065130 0.187867 -0.498042
v 0.059650 0.187867 -0.498042
v 0.500000 0.187867 -0.498042
v 0.500000 0.187867 0.501958
v 0.059650 0.187867 0.501958
v 0.411930 0.310107 -0.498042
v 0.411930 0.187867 -0.498042
v 0.411930 0.065626 -0.498042
v 0.411930 -0.500000 -0.498042
v 0.411930 -0.500000 0.501958
v 0.411930 0.065626 0.501958
v 0.411930 0.187867 0.501958
v 0.411930 0.310107 0.501958
v 0.411930 0.500000 0.501958
v 0.411930 0.500000 -0.498042
v -0.413026 -0.500000 0.501958
v -0.413026 -0.500000 -0.498042
v -0.413026 0.065626 -0.498042
v -0.413026 0.187867 -0.498042
v -0.413026 0.310107 -0.498042
v -0.413026 0.500000 -0.498042
v -0.413026 0.500000 0.501958
v -0.413026 0.310107 0.501958
v -0.413026 0.187867 0.501958
v -0.413026 0.065626 0.501958
v -0.500000 0.500000 0.401958
v -0.413026 0.500000 0.401958
v -0.065130 0.500000 0.401958
v 0.059650 0.500000 0.401958
v 0.411930 0.500000 0.401958
v 0.500000 0.500000 0.401958
v 0.500000 0.310107 0.401958
v 0.500000 0.187867 0.401958
v 0.500000 0.065626 0.401958
v 0.500000 -0.500000 0.401958
v 0.411930 -0.500000 0.401958
v 0.059650 -0.500000 0.401958
v -0.065130 -0.500000 0.401958
v -0.413026 -0.500000 0.401958
v -0.500000 -0.500000 0.401958
v -0.500000 0.065626 0.401958
v -0.500000 0.187867 0.401958
v -0.500000 0.310107 0.401958
v -0.500000 -0.500000 -0.408042
v -0.413026 -0.500000 -0.408042
v -0.065130 -0.500000 -0.408042
v 0.059650 -0.500000 -0.408042
v 0.411930 -0.500000 -0.408042
v 0.500000 -0.500000 -0.408042
v 0.500000 0.065626 -0.408042
v 0.500000 0.187867 -0.408042
v 0.500000 0.310107 -0.408042
v 0.500000 0.500000 -0.408042
v 0.411930 0.500000 -0.408042
v 0.059650 0.500000 -0.408042
v -0.065130 0.500000 -0.408042
v -0.413026 0.500000 -0.408042
v -0.500000 0.500000 -0.408042
v -0.500000 0.310107 -0.408042
v -0.500000 0.187867 -0.408042
v -0.500000 0.065626 -0.408042
v -0.500000 -0.416844 0.501958
v -0.413026 -0.416844 0.501958
v -0.065130 -0.416844 0.501958
v 0.059650 -0.416844 0.501958
v 0.411930 -0.416844 0.501958
v 0.500000 -0.416844 0.501958
v 0.500000 -0.416844 0.401958
v 0.500000 -0.416844 -0.408042
v 0.500000 -0.416844 -0.498042
v 0.411930 -0.416844 -0.498042
v 0.059650 -0.416844 -0.498042
v -0.065130 -0.416844 -0.498042
v -0.413026 -0.416844 -0.498042
v -0.500000 -0.416844 -0.498042
v -0.500000 -0.416844 -0.408042
v -0.500000 -0.416844 0.401958
v -0.500000 0.416315 -0.498042
v -0.413026 0.416315 -0.498042
v -0.065130 0.416315 -0.498042
v 0.059650 0.416315 -0.498042
v 0.411930 0.416315 -0.498042
v 0.500000 0.416315 -0.498042
v 0.500000 0.416315 -0.408042
v 0.500000 0.416315 0.401958
v 0.500000 0.416315 0.501958
v 0.411930 0.416315 0.501958
v 0.059650 0.416315 0.501958
v -0.065130 0.416315 0.501958
v -0.413026 0.416315 0.501958
v -0.500000 0.416315 0.501958
v -0.500000 0.416315 0.401958
v -0.500000 0.416315 -0.408042
v -0.065130 0.065626 0.536140
v 0.059650 0.065626 0.536140
v 0.059650 0.187867 0.536140
v -0.065130 0.187867 0.536140
v 0.059650 0.310107 0.536140
v -0.065130 0.310107 0.536140
vt 0.690346 0.633128
vt 0.690346 0.366285
vt 0.725334 0.366285
vt 0.725334 0.633128
vt 0.662777 0.366285
vt 0.662777 0.633128
vt 0.725334 0.333342
vt 0.690346 0.333342
vt 0.765605 0.366285
vt 0.765605 0.633128
vt 0.690346 0.662777
vt 0.725334 0.662777
vt 0.662777 0.333342
vt 0.662777 0.662777
vt 0.765605 0.333342
vt 0.805875 0.366285
vt 0.805875 0.633128
vt 0.765605 0.662777
vt 0.805875 0.333342
vt 0.964818 0.366285
vt 0.964818 0.633128
vt 0.805875 0.662777
vt 0.964818 0.333342
vt 0.992212 0.366285
vt 0.992212 0.633128
vt 0.964818 0.662777
vt 0.992212 0.333342
vt 0.992212 0.662777
vt 0.305773 0.366285
vt 0.305773 0.633128
vt 0.270784 0.633128
vt 0.270784 0.366285
vt 0.333342 0.633128
vt 0.333342 0.366285
vt 0.270784 0.662777
vt 0.305773 0.662777
vt 0.230514 0.633128
vt 0.230514 0.366285
vt 0.305773 0.333342
vt 0.270784 0.333342
vt 0.333342 0.662777
vt 0.333342 0.333342
vt 0.230514 0.662777
vt 0.190244 0.633128
vt 0.190244 0.366285
vt 0.230514 0.333342
vt 0.190244 0.662777
vt 0.031301 0.633128
vt 0.031301 0.366285
vt 0.190244 0.333342
vt 0.031301 0.662777
vt 0.003906 0.633128
vt 0.003906 0.366285
vt 0.031301 0.333342
vt 0.003906 0.662777
vt 0.003906 0.333342
vt 0.075092 0.003906
vt 0.075092 0.044177
vt 0.063831 0.044177
vt 0.063831 0.003906
vt 0.075092 0.084447
vt 0.063831 0.084447
vt 0.048626 0.044177
vt 0.048626 0.003906
vt 0.059887 0.003906
vt 0.059887 0.044177
vt 0.048626 0.084447
vt 0.059887 0.084447
vt 0.517710 0.633128
vt 0.476603 0.633128
vt 0.476603 0.366285
vt 0.517710 0.366285
vt 0.476603 0.662777
vt 0.517710 0.662777
vt 0.361994 0.633128
vt 0.361994 0.366285
vt 0.476603 0.333342
vt 0.517710 0.333342
vt 0.633763 0.633128
vt 0.633764 0.366285
vt 0.361994 0.662777
vt 0.633763 0.662777
vt 0.361994 0.333342
vt 0.633764 0.333342
vt 0.851027 0.962875
vt 0.809920 0.962875
vt 0.809920 0.696032
vt 0.851027 0.696032
vt 0.809920 0.995818
vt 0.851027 0.995818
vt 0.695311 0.962875
vt 0.695311 0.696032
vt 0.809920 0.666383
vt 0.851027 0.666383
vt 0.967080 0.962875
vt 0.967080 0.696032
vt 0.695311 0.995818
vt 0.967080 0.995818
vt 0.666658 0.696032
vt 0.666658 0.962875
vt 0.695311 0.666383
vt 0.967080 0.666383
vt 0.996094 0.962875
vt 0.996094 0.696032
vt 0.666658 0.995818
vt 0.996094 0.995818
vt 0.666658 0.666383
vt 0.996094 0.666383
vt 0.079036 0.045013
vt 0.079036 0.003906
vt 0.090297 0.003906
vt 0.090297 0.045013
vt 0.105502 0.003906
vt 0.105502 0.045013
vt 0.094241 0.045013
vt 0.094241 0.003906
vt 0.517710 0.305773
vt 0.476603 0.305773
vt 0.476603 0.270784
vt 0.517710 0.270784
vt 0.361994 0.305773
vt 0.361994 0.270784
vt 0.633764 0.305773
vt 0.633764 0.270784
vt 0.333342 0.270784
vt 0.333342 0.305773
vt 0.361994 0.230514
vt 0.476603 0.230514
vt 0.633764 0.230514
vt 0.517710 0.230514
vt 0.662777 0.305773
vt 0.662777 0.270784
vt 0.333342 0.230514
vt 0.361994 0.190244
vt 0.476603 0.190244
vt 0.662777 0.230514
vt 0.633764 0.190244
vt 0.517710 0.190244
vt 0.333342 0.190244
vt 0.361994 0.031301
vt 0.476603 0.031301
vt 0.662777 0.190244
vt 0.517710 0.031301
vt 0.633764 0.031301
vt 0.333342 0.031301
vt 0.361994 0.003906
vt 0.476603 0.003906
vt 0.662777 0.031301
vt 0.633764 0.003906
vt 0.517710 0.003906
vt 0.333342 0.003906
vt 0.662777 0.003906
vt 0.476603 0.690346
vt 0.517710 0.690346
vt 0.517710 0.725334
vt 0.476603 0.725334
vt 0.633763 0.690346
vt 0.633763 0.725334
vt 0.517710 0.765605
vt 0.476603 0.765605
vt 0.361994 0.725334
vt 0.361994 0.690346
vt 0.662777 0.725334
vt 0.662777 0.690346
vt 0.633764 0.765605
vt 0.517710 0.805875
vt 0.476603 0.805875
vt 0.361994 0.765605
vt 0.333342 0.690346
vt 0.333342 0.725334
vt 0.662777 0.765605
vt 0.633764 0.805875
vt 0.517710 0.964818
vt 0.476603 0.964818
vt 0.361994 0.805875
vt 0.333342 0.765605
vt 0.662777 0.805875
vt 0.633763 0.964818
vt 0.476603 0.992212
vt 0.517710 0.992212
vt 0.361994 0.964818
vt 0.333342 0.805875
vt 0.662777 0.964818
vt 0.633763 0.992212
vt 0.361994 0.992212
vt 0.333342 0.964818
vt 0.662777 0.992212
vt 0.333342 0.992212
vt 0.003906 0.003906
vt 0.045013 0.003906
vt 0.045013 0.044177
vt 0.003906 0.044177
vt 0.045013 0.084447
vt 0.003906 0.084447
vn 0.000000 0.000000 1.000000
vn 0.000000 0.000000 1.000000
vn 0.000000 0.000000 1.000000
vn 0.000000 0.000000 1.000000
vn 0.000000 1.000000 -0.000000
vn 0.000000 1.000000 -0.000000
vn 0.000000 1.000000 0.000000
vn 0.000000 1.000000 0.000000
vn 0.000000 0.000000 -1.000000
vn 0.000000 0.000000 -1.000000
vn 0.000000 0.000000 -1.000000
vn 0.000000 0.000000 -1.000000
vn 0.000000 -1.000000 0.000000
vn 0.000000 -1.000000 0.000000
vn 0.000000 -1.000000 0.000000
vn 0.000000 -1.000000 0.000000
vn 1.000000 0.000000 0.000000
vn 1.000000 0.000000 0.000000
vn 1.000000 0.000000 0.000000
vn 1.000000 0.000000 0.000000
vn -1.000000 0.000000 0.000000
vn -1.000000 0.000000 0.000000
vn -1.000000 0.000000 0.000000
vn -1.000000 0.000000 0.000000
vn 0.000000 -1.000000 0.000000
vn 0.000000 -1.000000 0.000000
vn 0.000000 0.000000 -1.000000
vn 0.000000 0.000000 -1.000000
vn 0.000000 1.000000 0.000000
vn 0.000000 1.000000 0.000000
vn 0.000000 0.000000 1.000000
vn 0.000000 0.000000 1.000000
vn 0.000000 0.000000 1.000000
vn 0.000000 0.000000 1.000000
vn 0.000000 0.000000 1.000000
vn 0.000000 0.000000 1.000000
vn 0.000000 0.000000 1.000000
vn 0.000000 0.000000 1.000000
vn 0.000000 0.000000 1.000000
vn 0.000000 0.000000 1.000000
vn 1.000000 0.000000 0.000000
vn 1.000000 0.000000 0.000000
vn 1.000000 0.000000 0.000000
vn 1.000000 0.000000 0.000000
vn 0.000000 0.000000 -1.000000
vn 0.000000 0.000000 -1.000000
vn 0.000000 0.000000 -1.000000
vn 0.000000 0.000000 -1.000000
vn 0.000000 0.000000 -1.000000
vn 0.000000 0.000000 -1.000000
vn -1.000000 0.000000 0.000000
vn -1.000000 0.000000 0.000000
vn -1.000000 0.000000 0.000000
vn -1.000000 0.000000 0.000000
vn 0.000000 0.000000 1.000000
vn 0.000000 0.000000 1.000000
vn 0.000000 0.000000 1.000000
vn 0.000000 0.000000 1.000000
vn 0.000000 0.000000 1.000000
vn 0.000000 0.000000 1.000000
vn 0.000000 1.000000 -0.000000
vn 0.000000 1.000000 0.000000
vn 0.000000 0.000000 -1.000000
vn 0.000000 0.000000 -1.000000
vn 0.000000 0.000000 -1.000000
vn 0.000000 0.000000 -1.000000
vn 0.000000 -1.000000 0.000000
vn 0.000000 -1.000000 0.000000
vn 0.000000 0.000000 1.000000
vn 0.000000 0.000000 1.000000
vn 0.000000 0.000000 1.000000
vn 0.000000 0.000000 1.000000
vn 1.000000 0.000000 0.000000
vn 1.000000 0.000000 0.000000
vn 0.000000 0.000000 -1.000000
vn 0.000000 0.000000 -1.000000
vn 0.000000 0.000000 -1.000000
vn 0.000000 0.000000 -1.000000
vn -1.000000 0.000000 0.000000
vn -1.000000 0.000000 0.000000
vn 0.000000 0.000000 1.000000
vn 0.000000 0.000000 1.000000
vn 0.000000 0.000000 -1.000000
vn 0.000000 0.000000 -1.000000
vn 0.000000 0.000000 -1.000000
vn 0.000000 0.000000 -1.000000
vn 0.000000 -1.000000 0.000000
vn 0.000000 -1.000000 0.000000
vn 0.000000 0.000000 1.000000
vn 0.000000 0.000000 1.000000
vn 0.000000 0.000000 1.000000
vn 0.000000 0.000000 1.000000
vn 0.000000 0.000000 1.000000
vn 0.000000 1.000000 0.000000
vn 0.000000 1.000000 0.000000
vn 0.000000 0.000000 -1.000000
vn 0.000000 -1.000000 0.000000
vn 0.000000 -1.000000 0.000000
vn 0.000000 0.000000 -1.000000
vn 0.000000 0.000000 -1.000000
vn 0.000000 0.000000 -1.000000
vn 0.000000 0.000000 -1.000000
vn 0.000000 0.000000 -1.000000
vn 0.000000 1.000000 0.000000
vn 0.000000 1.000000 0.000000
vn 0.000000 0.000000 1.000000
vn 0.000000 0.000000 1.000000
vn 0.000000 0.000000 1.000000
vn 0.000000 0.000000 1.000000
vn 0.000000 0.000000 1.000000
vn 0.000000 1.000000 0.000000
vn 0.000000 1.000000 0.000000
vn 0.000000 1.000000 0.000000
vn 0.000000 1.000000 0.000001
vn 0.000000 1.000000 0.000001
vn 0.000000 1.000000 0.000000
vn 1.000000 0.000000 0.000000
vn 1.000000 0.000000 0.000000
vn 1.000000 0.000000 0.000000
vn 1.000000 0.000000 0.000000
vn 1.000000 0.000000 0.000000
vn 0.000000 -1.000000 0.000000
vn 0.000000 -1.000000 0.000000
vn 0.000000 -1.000000 0.000000
vn 0.000000 -1.000000 0.000000
vn 0.000000 -1.000000 0.000000
vn 0.000000 -1.000000 0.000000
vn -1.000000 0.000000 0.000000
vn -1.000000 0.000000 0.000000
vn -1.000000 0.000000 0.000000
vn -1.000000 0.000000 0.000000
vn -1.000000 0.000000 0.000000
vn 0.000000 -1.000000 0.000000
vn 0.000000 -1.000000 0.000000
vn 0.000000 -1.000000 0.000000
vn 0.000000 -1.000000 0.000000
vn 0.000000 -1.000000 0.000000
vn 0.000000 -1.000000 0.000000
vn 1.000000 0.000000 0.000000
vn 1.000000 0.000000 0.000000
vn 1.000000 0.000000 0.000000
vn 1.000000 0.000000 0.000000
vn 1.000000 0.000000 0.000000
vn 0.000000 1.000000 0.000000
vn 0.000000 1.000000 0.000000
vn 0.000000 1.000000 0.000000
vn 0.000000 1.000000 0.000000
vn 0.000000 1.000000 0.000000
vn 0.000000 1.000000 0.000000
vn -1.000000 0.000000 0.000000
vn -1.000000 0.000000 0.000000
vn -1.000000 0.000000 0.000000
vn -1.000000 0.000000 0.000000
vn -1.000000 0.000000 0.000000
vn 0.000000 0.000000 1.000000
vn 0.000000 0.000000 1.000000
vn 0.000000 0.000000 1.000000
vn 0.000000 0.000000 1.000000
vn 0.000000 0.000000 1.000000
vn 0.000000 0.000000 1.000000
vn 1.000000 0.000000 0.000000
vn 1.000000 0.000000 0.000000
vn 1.000000 0.000000 0.000000
vn 1.000000 0.000000 0.000000
vn 0.000000 0.000000 -1.000000
vn 0.000000 0.000000 -1.000000
vn 0.000000 0.000000 -1.000000
vn 0.000000 0.000000 -1.000000
vn 0.000000 0.000000 -1.000000
vn 0.000000 0.000000 -1.000000
vn -1.000000 0.000000 0.000000
vn -1.000000 0.000000 0.000000
vn -1.000000 0.000000 0.000000
vn -1.000000 0.000000 0.000000
vn 0.000000 0.000000 -1.000000
vn 0.000000 0.000000 -1.000000
vn 0.000000 0.000000 -1.000000
vn 0.000000 0.000000 -1.000000
vn 0.000000 0.000000 -1.000000
vn 0.000000 0.000000 -1.000000
vn 1.000000 0.000000 0.000000
vn 1.000000 0.000000 0.000000
vn 1.000000 0.000000 0.000000
vn 1.000000 0.000000 0.000000
vn 0.000000 0.000000 1.000000
vn 0.000000 0.000000 1.000000
vn 0.000000 0.000000 1.000000
vn 0.000000 0.000000 1.000000
vn 0.000000 0.000000 1.000000
vn 0.000000 0.000000 1.000000
vn -1.000000 0.000000 0.000000
vn -1.000000 0.000000 0.000000
vn -1.000000 0.000000 0.000000
vn -1.000000 0.000000 0.000000
vn 0.000000 -1.000000 0.000000
vn 0.000000 -1.000000 0.000000
vn 0.000000 -1.000000 0.000000
vn 0.000000 -1.000000 0.000000
vn 1.000000 0.000000 0.000000
vn 1.000000 0.000000 0.000000
vn 1.000000 0.000000 0.000000
vn 1.000000 0.000000 0.000000
vn -1.000000 0.000000 0.000000
vn -1.000000 0.000000 0.000000
vn -1.000000 0.000000 0.000000
vn -1.000000 0.000000 0.000000
vn 1.000000 0.000000 0.000000
vn 1.000000 0.000000 0.000000
vn 0.000000 1.000000 0.000000
vn 0.000000 1.000000 0.000000
vn 0.000000 1.000000 0.000000
vn 0.000000 1.000000 0.000000
vn -1.000000 0.000000 0.000000
vn -1.000000 0.000000 0.000000
s 1
g pCube2
usemtl initialShadingGroup
f 123/117/1 124/118/2 14/119/3 20/120/4
s 2
f 90/69/5 91/70/6 63/71/7 64/72/8
s 3
f 115/153/9 116/154/10 23/155/11 17/156/12
s 4
f 72/85/13 73/86/14 81/87/15 82/88/16
s 5
f 119/1/17 120/2/18 67/3/19 87/4/20
s 6
f 127/29/21 128/30/22 94/31/23 78/32/24
s 4
f 73/86/14 74/91/25 80/92/26 81/87/15
s 3
f 55/161/27 114/162/28 115/153/9 17/156/12
s 2
f 91/70/6 92/75/29 62/76/30 63/71/7
s 1
f 124/118/2 125/121/31 58/122/32 14/119/3
f 59/127/33 60/134/34 26/135/35 33/128/36
s 8
f 129/189/37 130/190/38 131/191/39 132/192/40
s 5
f 68/9/41 69/16/42 85/17/43 86/10/44
s 3
f 30/166/45 31/167/46 36/160/47 37/159/48
f 53/175/49 54/168/50 36/160/47 31/167/46
s 6
f 95/37/51 96/44/52 76/45/53 77/38/54
s 1
f 46/137/55 47/129/56 40/130/57 27/138/58
f 122/123/59 123/117/1 20/120/4 48/124/60
s 2
f 89/79/61 90/69/5 64/72/8 65/80/62
s 3
f 116/154/10 117/157/63 41/158/64 23/155/11
f 42/165/65 43/172/66 30/166/45 37/159/48
s 4
f 71/95/67 72/85/13 82/88/16 83/96/68
s 1
f 60/134/34 98/140/69 99/141/70 26/135/35
f 99/141/70 100/143/71 27/138/58 26/135/35
f 100/143/71 101/144/72 46/137/55 27/138/58
s 5
f 69/16/42 103/20/73 104/21/74 85/17/43
s 3
f 106/178/75 107/173/76 30/166/45 43/172/66
f 107/173/76 108/174/77 31/167/46 30/166/45
f 108/174/77 109/181/78 53/175/49 31/167/46
s 6
f 96/44/52 111/48/79 112/49/80 76/45/53
s 1
f 58/122/32 59/127/33 33/128/36 14/119/3
s 6
f 94/31/23 95/37/51 77/38/54 78/32/24
s 3
f 54/168/50 55/161/27 17/156/12 36/160/47
f 37/159/48 36/160/47 17/156/12 23/155/11
f 41/158/64 42/165/65 37/159/48 23/155/11
s 5
f 67/3/19 68/9/41 86/10/44 87/4/20
s 1
f 47/129/56 48/124/60 20/120/4 40/130/57
s 8
f 132/192/40 131/191/39 133/193/81 134/194/82
s 3
f 38/171/83 42/165/65 41/158/64 16/163/84
f 29/177/85 43/172/66 42/165/65 38/171/83
f 105/183/86 106/178/75 43/172/66 29/177/85
s 4
f 70/103/87 71/95/67 83/96/68 84/104/88
s 1
f 28/142/89 46/137/55 101/144/72 102/148/90
f 39/136/91 47/129/56 46/137/55 28/142/89
f 15/132/92 48/124/60 47/129/56 39/136/91
f 121/131/93 122/123/59 48/124/60 15/132/92
s 2
f 88/6/94 89/79/61 65/80/62 66/5/95
s 3
f 16/163/84 41/158/64 117/157/63 118/164/96
s 4
f 79/99/97 80/92/26 74/91/25 75/100/98
s 3
f 32/182/99 53/175/49 109/181/78 110/186/100
f 35/176/101 54/168/50 53/175/49 32/182/99
f 18/170/102 55/161/27 54/168/50 35/176/101
f 113/169/103 114/162/28 55/161/27 18/170/102
s 2
f 61/34/104 62/76/30 92/75/29 93/33/105
s 1
f 13/125/106 58/122/32 125/121/31 126/126/107
f 34/133/108 59/127/33 58/122/32 13/125/106
f 25/139/109 60/134/34 59/127/33 34/133/108
f 97/145/110 98/140/69 60/134/34 25/139/109
s 2
f 3/42/111 57/83/112 62/76/30 61/34/104
f 63/71/7 62/76/30 57/83/112 12/77/113
f 64/72/8 63/71/7 12/77/113 21/78/114
f 65/80/62 64/72/8 21/78/114 49/84/115
f 66/5/95 65/80/62 49/84/115 4/13/116
s 5
f 15/7/117 67/3/19 120/2/18 121/8/118
f 39/15/119 68/9/41 67/3/19 15/7/117
f 28/19/120 69/16/42 68/9/41 39/15/119
f 102/23/121 103/20/73 69/16/42 28/19/120
s 4
f 45/98/122 71/95/67 70/103/87 2/106/123
f 19/90/124 72/85/13 71/95/67 45/98/122
f 9/89/125 73/86/14 72/85/13 19/90/124
f 51/97/126 74/91/25 73/86/14 9/89/125
f 75/100/98 74/91/25 51/97/126 1/105/127
s 6
f 76/45/53 112/49/80 97/54/128 25/50/129
f 77/38/54 76/45/53 25/50/129 34/46/130
f 78/32/24 77/38/54 34/46/130 13/40/131
f 126/39/132 127/29/21 78/32/24 13/40/131
s 4
f 7/107/133 52/101/134 80/92/26 79/99/97
f 81/87/15 80/92/26 52/101/134 10/93/135
f 82/88/16 81/87/15 10/93/135 24/94/136
f 83/96/68 82/88/16 24/94/136 44/102/137
f 84/104/88 83/96/68 44/102/137 8/108/138
s 5
f 85/17/43 104/21/74 105/26/139 29/22/140
f 86/10/44 85/17/43 29/22/140 38/18/141
f 87/4/20 86/10/44 38/18/141 16/12/142
f 118/11/143 119/1/17 87/4/20 16/12/142
s 2
f 50/82/144 89/79/61 88/6/94 6/14/145
f 22/74/146 90/69/5 89/79/61 50/82/144
f 11/73/147 91/70/6 90/69/5 22/74/146
f 56/81/148 92/75/29 91/70/6 11/73/147
f 93/33/105 92/75/29 56/81/148 5/41/149
s 6
f 18/35/150 94/31/23 128/30/22 113/36/151
f 35/43/152 95/37/51 94/31/23 18/35/150
f 32/47/153 96/44/52 95/37/51 35/43/152
f 110/51/154 111/48/79 96/44/52 32/47/153
s 1
f 1/151/155 51/146/156 98/140/69 97/145/110
f 99/141/70 98/140/69 51/146/156 9/147/157
f 19/150/158 100/143/71 99/141/70 9/147/157
f 45/149/159 101/144/72 100/143/71 19/150/158
f 102/148/90 101/144/72 45/149/159 2/152/160
s 5
f 2/27/161 70/24/162 103/20/73 102/23/121
f 104/21/74 103/20/73 70/24/162 84/25/163
f 105/26/139 104/21/74 84/25/163 8/28/164
s 3
f 44/184/165 106/178/75 105/183/86 8/187/166
f 24/180/167 107/173/76 106/178/75 44/184/165
f 10/179/168 108/174/77 107/173/76 24/180/167
f 52/185/169 109/181/78 108/174/77 10/179/168
f 110/186/100 109/181/78 52/185/169 7/188/170
s 6
f 7/55/171 79/52/172 111/48/79 110/51/154
f 112/49/80 111/48/79 79/52/172 75/53/173
f 97/54/128 112/49/80 75/53/173 1/56/174
s 3
f 5/41/175 56/81/176 114/162/28 113/169/103
f 115/153/9 114/162/28 56/81/176 11/73/177
f 22/74/178 116/154/10 115/153/9 11/73/177
f 50/82/179 117/157/63 116/154/10 22/74/178
f 118/164/96 117/157/63 50/82/179 6/14/180
s 5
f 88/6/181 119/1/17 118/11/143 6/14/182
f 66/5/183 120/2/18 119/1/17 88/6/181
f 121/8/118 120/2/18 66/5/183 4/13/184
s 1
f 49/84/185 122/123/59 121/131/93 4/13/186
f 21/78/187 123/117/1 122/123/59 49/84/185
f 12/77/188 124/118/2 123/117/1 21/78/187
f 57/83/189 125/121/31 124/118/2 12/77/188
f 126/126/107 125/121/31 57/83/189 3/42/190
s 6
f 61/34/191 127/29/21 126/39/132 3/42/192
f 93/33/193 128/30/22 127/29/21 61/34/191
f 113/36/151 128/30/22 93/33/193 5/41/194
s off
f 26/109/195 27/110/196 130/111/197 129/112/198
s 13
f 27/57/199 40/58/200 131/59/201 130/60/202
s 14
f 33/63/203 26/64/204 129/65/205 132/66/206
s 13
f 40/58/200 20/61/207 133/62/208 131/59/201
s off
f 20/113/209 14/114/210 134/115/211 133/116/212
s 14
f 14/67/213 33/63/203 132/66/206 134/68/214
